<svg width="104" height="135" viewBox="0 0 104 135" fill="none" xmlns="http://www.w3.org/2000/svg">
<path d="M103.491 103.928C103.491 104.992 102.963 106.056 101.907 106.668L92.7312 111.968L56.5913 132.832C53.6553 134.528 50.0353 134.528 47.0993 132.832L10.9553 111.968L1.7793 106.668C0.723297 106.056 0.195312 104.992 0.195312 103.928C0.195312 102.864 0.723297 101.796 1.7793 101.184L47.0993 75.02C50.0353 73.324 53.6553 73.324 56.5913 75.02L101.907 101.188C102.963 101.8 103.491 102.864 103.491 103.928Z" fill="#E8E5DD"/>
<path d="M103.491 78.3265C103.491 79.3905 102.963 80.4545 101.907 81.0665L92.7312 86.3665L56.5913 107.23C53.6553 108.926 50.0353 108.926 47.0993 107.23L10.9553 86.3665L1.7793 81.0665C0.723297 80.4545 0.195312 79.3905 0.195312 78.3265C0.195312 77.2625 0.723297 76.1945 1.7793 75.5825L47.0993 49.4185C50.0353 47.7225 53.6553 47.7225 56.5913 49.4185L101.907 75.5865C102.963 76.1985 103.491 77.2625 103.491 78.3265Z" fill="white" stroke="#020202" stroke-width="0.39" stroke-linecap="round" stroke-linejoin="round"/>
<path d="M103.491 78.3281V94.4042C103.491 95.4682 102.963 96.5321 101.907 97.1441L56.5913 123.308C53.6553 125.004 50.0353 125.004 47.0993 123.308L1.7793 97.1441C0.723297 96.5321 0.195312 95.4682 0.195312 94.4042V78.3281C0.195312 79.3921 0.723297 80.4561 1.7793 81.0681L10.9553 86.3681L47.0993 107.232C50.0353 108.928 53.6553 108.928 56.5913 107.232L92.7312 86.3681L101.907 81.0681C102.963 80.4561 103.491 79.3921 103.491 78.3281Z" fill="#E8E5DD" stroke="#020202" stroke-width="0.39" stroke-linecap="round" stroke-linejoin="round"/>
<path d="M94.0589 77.7006C94.0589 78.0006 94.0029 78.3006 93.8909 78.5926C93.6069 79.3406 92.9629 80.0486 91.9589 80.6286C89.1589 82.2446 84.6149 82.2446 81.8109 80.6286C80.8069 80.0486 80.1589 79.3366 79.8789 78.5926C79.7669 78.3006 79.7109 78.0006 79.7109 77.7006C79.7109 76.6406 80.4109 75.5805 81.8109 74.7725C84.6109 73.1565 89.1549 73.1565 91.9589 74.7725C93.3589 75.5805 94.0589 76.6406 94.0589 77.7006Z" fill="#E8E5DF" stroke="#020202" stroke-width="0.39" stroke-miterlimit="10" stroke-linecap="round"/>
<path d="M90.8664 67.3805C90.8664 65.1805 89.0824 63.3965 86.8824 63.3965C84.6824 63.3965 82.8984 65.1805 82.8984 67.3805V77.7045C82.8984 77.8165 82.9304 77.9285 82.9904 78.0405C83.1464 78.3205 83.5064 78.5885 84.0664 78.8045C85.6224 79.4125 88.1464 79.4125 89.7024 78.8045C90.2624 78.5845 90.6184 78.3205 90.7784 78.0405C90.8424 77.9285 90.8704 77.8165 90.8704 77.7045V67.3805H90.8664Z" fill="white" stroke="#020202" stroke-width="0.39" stroke-linecap="round" stroke-linejoin="round"/>
<path d="M86.8828 67.4219V79.2619" stroke="#020202" stroke-width="0.39" stroke-linecap="round" stroke-linejoin="round"/>
<path d="M23.9809 77.7006C23.9809 78.0006 23.9249 78.3006 23.8129 78.5926C23.5289 79.3406 22.8849 80.0486 21.8809 80.6286C19.0809 82.2446 14.5368 82.2446 11.7328 80.6286C10.7288 80.0486 10.0809 79.3366 9.80088 78.5926C9.68888 78.3006 9.63281 78.0006 9.63281 77.7006C9.63281 76.6406 10.3328 75.5805 11.7328 74.7725C14.5328 73.1565 19.0769 73.1565 21.8809 74.7725C23.2809 75.5805 23.9809 76.6406 23.9809 77.7006Z" fill="#E8E5DF" stroke="#020202" stroke-width="0.39" stroke-miterlimit="10" stroke-linecap="round"/>
<path d="M20.7962 67.3805C20.7962 65.1805 19.0122 63.3965 16.8122 63.3965C14.6122 63.3965 12.8281 65.1805 12.8281 67.3805V77.7045C12.8281 77.8165 12.8602 77.9285 12.9202 78.0405C13.0762 78.3205 13.4362 78.5885 13.9962 78.8045C15.5522 79.4125 18.0761 79.4125 19.6321 78.8045C20.1921 78.5845 20.5482 78.3205 20.7082 78.0405C20.7722 77.9285 20.8002 77.8165 20.8002 77.7045V67.3805H20.7962Z" fill="white" stroke="#020202" stroke-width="0.39" stroke-linecap="round" stroke-linejoin="round"/>
<path d="M16.8047 67.4219V79.2619" stroke="#020202" stroke-width="0.39" stroke-linecap="round" stroke-linejoin="round"/>
<path d="M73.3973 71.5544C73.3973 72.4544 73.2293 73.3544 72.8933 74.2384C72.0373 76.4824 70.1052 78.6144 67.0812 80.3584C58.6652 85.2184 45.0133 85.2184 36.5973 80.3584C33.5773 78.6144 31.6373 76.4824 30.7853 74.2384C30.4493 73.3584 30.2812 72.4544 30.2812 71.5544C30.2812 68.3704 32.3853 65.1864 36.5973 62.7544C45.0133 57.8944 58.6652 57.8944 67.0812 62.7544C71.2892 65.1864 73.3973 68.3704 73.3973 71.5544Z" fill="white" stroke="#020202" stroke-width="0.39" stroke-miterlimit="10" stroke-linecap="round"/>
<path d="M73.3973 71.5527V78.3287C73.3973 81.5127 71.2892 84.6967 67.0812 87.1287C58.6652 91.9887 45.0133 91.9887 36.5973 87.1287C32.3853 84.6967 30.2812 81.5127 30.2812 78.3287V71.5527C30.2812 72.4527 30.4493 73.3527 30.7853 74.2367C31.6373 76.4807 33.5733 78.6127 36.5973 80.3567C45.0133 85.2167 58.6652 85.2167 67.0812 80.3567C70.1012 78.6127 72.0373 76.4807 72.8933 74.2367C73.2293 73.3567 73.3973 72.4527 73.3973 71.5527Z" fill="#E8E5DD" stroke="#020202" stroke-width="0.39" stroke-miterlimit="10" stroke-linecap="round"/>
<path d="M67.4173 65.0037C67.4173 65.6517 67.2972 66.3037 67.0532 66.9397C66.4372 68.5597 65.0372 70.0997 62.8572 71.3597C56.7772 74.8717 46.9212 74.8717 40.8412 71.3597C38.6572 70.0997 37.2572 68.5597 36.6452 66.9397C36.4012 66.3037 36.2812 65.6517 36.2812 65.0037C36.2812 62.7037 37.8012 60.4037 40.8412 58.6477C46.9212 55.1357 56.7772 55.1357 62.8572 58.6477C65.8972 60.4037 67.4173 62.7037 67.4173 65.0037Z" fill="white" stroke="#020202" stroke-width="0.39" stroke-miterlimit="10" stroke-linecap="round"/>
<path d="M67.4173 65.0078V69.8998C67.4173 72.1998 65.8972 74.4998 62.8572 76.2558C56.7772 79.7678 46.9212 79.7678 40.8412 76.2558C37.7972 74.4998 36.2812 72.1998 36.2812 69.8998V65.0078C36.2812 65.6558 36.4012 66.3078 36.6452 66.9438C37.2612 68.5638 38.6612 70.1038 40.8412 71.3638C46.9212 74.8758 56.7772 74.8758 62.8572 71.3638C65.0412 70.1038 66.4372 68.5638 67.0532 66.9438C67.2972 66.3078 67.4173 65.6558 67.4173 65.0078Z" fill="#E8E5DD" stroke="#020202" stroke-width="0.39" stroke-miterlimit="10" stroke-linecap="round"/>
<path d="M77.4175 25.7713C77.4175 32.1633 75.0695 38.0153 71.1935 42.4953L62.5935 52.0793L59.1694 55.8953C58.8094 56.0833 58.4374 56.2553 58.0454 56.4033C54.3214 57.8793 49.3694 57.8793 45.6454 56.4033C45.2534 56.2553 44.8814 56.0833 44.5214 55.8953L41.0975 52.0793L40.9374 51.9033L32.4975 42.4953C28.6175 38.0153 26.2734 32.1633 26.2734 25.7713C26.2734 11.6473 37.7214 0.195312 51.8454 0.195312C58.9054 0.195312 65.2934 3.0553 69.9214 7.6793C74.5534 12.3113 77.4175 18.7033 77.4175 25.7713Z" fill="#E8E5DF" stroke="#020202" stroke-width="0.39" stroke-linecap="round" stroke-linejoin="round"/>
<path d="M77.4176 25.7756C77.4176 32.1676 75.0696 38.0196 71.1936 42.4996L62.5936 52.0836L59.1695 55.8996C58.8095 56.0876 58.4375 56.2596 58.0455 56.4076C54.3215 57.8836 49.3695 57.8836 45.6455 56.4076C45.2535 56.2596 44.8815 56.0876 44.5215 55.8996L41.0976 52.0836L40.9375 51.9076H47.7335C49.1375 51.9076 50.5215 51.6996 51.8455 51.3036C54.2055 50.5996 56.3736 49.2916 58.1096 47.4756C58.2736 47.2996 58.4456 47.1236 58.6176 46.9396C63.2456 42.0316 69.7095 34.4196 71.8415 28.6356C74.7655 20.7156 71.6535 11.6876 69.9215 7.68359C74.5535 12.3156 77.4176 18.7076 77.4176 25.7756Z" fill="#F3F3EE" stroke="#020202" stroke-width="0.39" stroke-miterlimit="10" stroke-linecap="round"/>
<path d="M44.2808 27.7461C46.1728 27.7461 46.1727 30.1461 48.0647 30.1461C49.9567 30.1461 49.9567 27.7461 51.8487 27.7461C53.7407 27.7461 53.7407 30.1461 55.6327 30.1461C57.5247 30.1461 57.5248 27.7461 59.4168 27.7461H62.2208L51.8447 38.1221L41.4688 27.7461H44.2728H44.2808Z" stroke="#020202" stroke-width="0.39" stroke-miterlimit="10"/>
<path d="M51.8516 38.1211V54.7011" stroke="#020202" stroke-width="0.39" stroke-linecap="round" stroke-linejoin="round"/>
<path d="M41.4531 7.05666C42.8651 6.19666 44.3611 5.46867 45.9371 4.88867" stroke="#020202" stroke-width="0.39" stroke-miterlimit="10" stroke-linecap="round"/>
<path d="M31.5312 18.2054C33.1112 14.7814 35.4233 11.7654 38.2713 9.35742" stroke="#020202" stroke-width="0.39" stroke-miterlimit="10" stroke-linecap="round"/>
<path d="M59.27 55.8457V57.6177C59.27 57.9297 59.0861 58.2137 58.8021 58.3457C58.5541 58.4617 58.302 58.5697 58.042 58.6697C54.318 60.1457 49.366 60.1457 45.642 58.6697C45.382 58.5697 45.126 58.4617 44.882 58.3457C44.598 58.2137 44.4141 57.9297 44.4141 57.6177V55.8497C44.8061 56.0577 45.21 56.2497 45.638 56.4097C49.362 57.8857 54.314 57.8857 58.038 56.4097C58.466 56.2457 58.874 56.0577 59.266 55.8457H59.27Z" fill="#F3F3EE" stroke="#020202" stroke-width="0.39" stroke-miterlimit="10" stroke-linecap="round"/>
<path d="M59.27 61.0136V62.1416C59.27 62.4536 59.0861 62.7375 58.8021 62.8695C58.5541 62.9855 58.302 63.0936 58.042 63.1976C54.318 64.6736 49.366 64.6736 45.642 63.1976C45.382 63.0976 45.13 62.9855 44.882 62.8695C44.598 62.7375 44.4141 62.4536 44.4141 62.1416V61.0136C44.4141 60.7216 44.714 60.5296 44.978 60.6496C45.194 60.7496 45.414 60.8416 45.642 60.9296C49.366 62.4056 54.318 62.4056 58.042 60.9296C58.266 60.8416 58.4901 60.7456 58.7061 60.6496C58.9701 60.5296 59.27 60.7216 59.27 61.0136Z" fill="#F3F3EE" stroke="#020202" stroke-width="0.39" stroke-miterlimit="10" stroke-linecap="round"/>
<path d="M59.27 65.5272V66.6552C59.27 66.9672 59.0861 67.2512 58.8021 67.3832C58.5541 67.4992 58.302 67.6072 58.042 67.7112C54.318 69.1872 49.366 69.1872 45.642 67.7112C45.382 67.6112 45.13 67.4992 44.882 67.3832C44.598 67.2512 44.4141 66.9672 44.4141 66.6552V65.5272C44.4141 65.2352 44.714 65.0433 44.978 65.1633C45.194 65.2633 45.414 65.3552 45.642 65.4432C49.366 66.9192 54.318 66.9192 58.042 65.4432C58.266 65.3552 58.4901 65.2593 58.7061 65.1633C58.9701 65.0433 59.27 65.2352 59.27 65.5272Z" fill="#F3F3EE" stroke="#020202" stroke-width="0.39" stroke-miterlimit="10" stroke-linecap="round"/>
<path d="M58.0484 63.2012V65.4612C54.3244 66.9372 49.3724 66.9372 45.6484 65.4612V63.2012C49.3724 64.6772 54.3244 64.6772 58.0484 63.2012Z" fill="#E8E5DF" stroke="#020202" stroke-width="0.39" stroke-linecap="round" stroke-linejoin="round"/>
<path d="M58.0484 58.6699V60.9339C54.3244 62.4099 49.3724 62.4099 45.6484 60.9339V58.6699C49.3724 60.1459 54.3244 60.1459 58.0484 58.6699Z" fill="#E8E5DF" stroke="#020202" stroke-width="0.39" stroke-linecap="round" stroke-linejoin="round"/>
<path d="M56.364 90.0953C56.364 90.2833 56.328 90.4713 56.26 90.6593C56.08 91.1313 55.6759 91.5753 55.0439 91.9433C53.2799 92.9633 50.42 92.9633 48.656 91.9433C48.024 91.5793 47.6159 91.1313 47.4399 90.6593C47.3679 90.4753 47.3359 90.2873 47.3359 90.0953C47.3359 89.4273 47.776 88.7593 48.66 88.2513C50.424 87.2313 53.2839 87.2313 55.0479 88.2513C55.9319 88.7593 56.372 89.4273 56.372 90.0953H56.364Z" fill="#E8E5DF" stroke="#020202" stroke-width="0.39" stroke-linecap="round" stroke-linejoin="round"/>
<path d="M56.3642 90.0996V97.2276C56.3642 97.8956 55.9241 98.5636 55.0401 99.0716C53.2761 100.092 50.4161 100.092 48.6521 99.0716C47.7681 98.5636 47.3281 97.8956 47.3281 97.2276V90.0996C47.3281 90.2876 47.3641 90.4756 47.4321 90.6636C47.6121 91.1356 48.0161 91.5796 48.6481 91.9476C50.4121 92.9676 53.2721 92.9676 55.0361 91.9476C55.6681 91.5836 56.0761 91.1356 56.2521 90.6636C56.3241 90.4796 56.3562 90.2916 56.3562 90.0996H56.3642Z" fill="#F3F3EE" stroke="#020202" stroke-width="0.39" stroke-miterlimit="10"/>
<path d="M56.3672 100.297V97.2246" stroke="#020202" stroke-width="0.39" stroke-linecap="round" stroke-linejoin="round"/>
<path d="M54.4062 102.001V99.373" stroke="#020202" stroke-width="0.39" stroke-linecap="round" stroke-linejoin="round"/>
<path d="M49.2891 102.001V99.373" stroke="#020202" stroke-width="0.39" stroke-linecap="round" stroke-linejoin="round"/>
<path d="M51.8438 102.46V99.8359" stroke="#020202" stroke-width="0.39" stroke-linecap="round" stroke-linejoin="round"/>
<path d="M47.3281 100.297V97.2246" stroke="#020202" stroke-width="0.39" stroke-linecap="round" stroke-linejoin="round"/>
<path d="M61.6094 111.28C62.9894 110.484 62.9893 113.628 64.3693 112.832C65.7493 112.036 65.7493 108.892 67.1293 108.096C68.5093 107.3 68.5094 110.444 69.8894 109.648C71.2694 108.852 71.2693 105.708 72.6453 104.912C74.0213 104.116 74.0254 107.26 75.4054 106.464C76.7854 105.668 76.7853 102.524 78.1653 101.728C79.5453 100.932 79.5453 104.076 80.9253 103.28C82.3053 102.484 82.3054 99.3405 83.6854 98.5405C85.0654 97.7445 85.0653 100.888 86.4453 100.092" stroke="#020202" stroke-width="0.39" stroke-miterlimit="10"/>
<path d="M100.501 90.0549C100.501 87.3349 98.8492 86.0869 96.8092 87.2629C94.7692 88.4389 93.1172 91.5989 93.1172 94.3189C93.1172 97.0389 94.7692 98.2869 96.8092 97.1109C98.8492 95.9349 100.501 92.7749 100.501 90.0549Z" fill="#E8E5DF" stroke="#020202" stroke-width="0.39" stroke-linecap="round" stroke-linejoin="round"/>
<path d="M96.8047 92.1858L98.7767 89.7578" stroke="#020202" stroke-width="0.39" stroke-linecap="round" stroke-linejoin="round"/>
<path d="M7.81367 93.0385C7.81367 93.7905 7.35365 94.1386 6.78965 93.8106C6.22565 93.4826 5.76562 92.6066 5.76562 91.8546C5.76562 91.1026 6.22565 90.7545 6.78965 91.0825C7.35365 91.4105 7.81367 92.2865 7.81367 93.0385Z" fill="#020202"/>
<path d="M12.2121 95.5835C12.2121 96.3355 11.7521 96.6835 11.1881 96.3555C10.6241 96.0275 10.1641 95.1515 10.1641 94.3995C10.1641 93.6475 10.6241 93.2995 11.1881 93.6275C11.7521 93.9555 12.2121 94.8315 12.2121 95.5835Z" fill="#020202"/>
<path d="M16.6183 98.1264C16.6183 98.8784 16.1583 99.2265 15.5943 98.8985C15.0303 98.5705 14.5703 97.6945 14.5703 96.9425C14.5703 96.1905 15.0303 95.8424 15.5943 96.1704C16.1583 96.4984 16.6183 97.3744 16.6183 98.1264Z" fill="#020202"/>
<path d="M31.7578 106.422L41.8818 112.266" stroke="#020202" stroke-width="0.39" stroke-linecap="round" stroke-linejoin="round"/>
<path d="M23.9844 101.936L27.9323 104.212" stroke="#020202" stroke-width="0.39" stroke-linecap="round" stroke-linejoin="round"/>
</svg>
